HIERARCHY
ROOT Hips
{
    OFFSET 0.000000 0.000000 0.000000
    CHANNELS 6 Xposition Yposition Zposition Zrotation Yrotation Xrotation
    JOINT Chest
    {
        OFFSET 0.000000 1.634758 -0.000000
        CHANNELS 3 Zrotation Yrotation Xrotation
        JOINT Chest2
        {
            OFFSET 0.000000 2.197341 0.000000
            CHANNELS 3 Zrotation Yrotation Xrotation
            JOINT Neck
            {
                OFFSET 0.000000 0.961544 0.000000
                CHANNELS 3 Zrotation Yrotation Xrotation
                JOINT Head
                {
                    OFFSET 0.000000 0.632542 -0.032565
                    CHANNELS 3 Zrotation Yrotation Xrotation
                    End Site
                    {
                        OFFSET -0.000001 0.439502 2.922845
                    }
                }
            }
            JOINT LeftCollar
            {
                OFFSET 0.167536 0.778237 -0.168280
                CHANNELS 3 Zrotation Yrotation Xrotation
                JOINT LeftShoulder
                {
                    OFFSET 0.831514 -0.002900 0.006458
                    CHANNELS 3 Zrotation Yrotation Xrotation
                    JOINT LeftElbow
                    {
                        OFFSET 2.272872 -0.026639 0.059314
                        CHANNELS 3 Zrotation Yrotation Xrotation
                        JOINT LeftWrist
                        {
                            OFFSET 2.081982 -0.024402 0.054333
                            CHANNELS 3 Zrotation Yrotation Xrotation
                            JOINT LeftHandThumb1
                            {
                                OFFSET 0.218903 -0.128645 0.283837
                                CHANNELS 3 Zrotation Yrotation Xrotation
                                JOINT LeftHandThumb2
                                {
                                    OFFSET 0.137157 -0.025101 0.077902
                                    CHANNELS 3 Zrotation Yrotation Xrotation
                                    JOINT LeftHandThumb3
                                    {
                                        OFFSET 0.163622 -0.081880 0.007927
                                        CHANNELS 3 Zrotation Yrotation Xrotation
                                        End Site
                                        {
                                            OFFSET 0.255284 -0.077032 -0.027067
                                        }
                                    }
                                }
                            }
                            JOINT LeftHandFore1
                            {
                                OFFSET 0.767340 -0.016076 0.196678
                                CHANNELS 3 Zrotation Yrotation Xrotation
                                JOINT LeftHandFore2
                                {
                                    OFFSET 0.215173 -0.024035 0.010864
                                    CHANNELS 3 Zrotation Yrotation Xrotation
                                    JOINT LeftHandFore3
                                    {
                                        OFFSET 0.003480 -0.129153 0.008378
                                        CHANNELS 3 Zrotation Yrotation Xrotation
                                        End Site
                                        {
                                            OFFSET -0.105322 -0.162018 0.004925
                                        }
                                    }
                                }
                            }
                            JOINT LeftHandMiddle1
                            {
                                OFFSET 0.709887 -0.008320 0.018526
                                CHANNELS 3 Zrotation Yrotation Xrotation
                                JOINT LeftHandMiddle2
                                {
                                    OFFSET 0.228603 -0.087976 0.008038
                                    CHANNELS 3 Zrotation Yrotation Xrotation
                                    JOINT LeftHandMiddle3
                                    {
                                        OFFSET -0.008550 -0.145861 0.005904
                                        CHANNELS 3 Zrotation Yrotation Xrotation
                                        End Site
                                        {
                                            OFFSET -0.179304 -0.153141 0.005309
                                        }
                                    }
                                }
                            }
                            JOINT LeftHandRing1
                            {
                                OFFSET 0.743817 -0.005823 -0.153668
                                CHANNELS 3 Zrotation Yrotation Xrotation
                                JOINT LeftHandRing2
                                {
                                    OFFSET 0.272006 -0.225026 -0.010453
                                    CHANNELS 3 Zrotation Yrotation Xrotation
                                    JOINT LeftHandRing3
                                    {
                                        OFFSET -0.058151 -0.123377 0.001429
                                        CHANNELS 3 Zrotation Yrotation Xrotation
                                        End Site
                                        {
                                            OFFSET -0.110415 -0.047174 0.001692
                                        }
                                    }
                                }
                            }
                            JOINT LeftHandLittle1
                            {
                                OFFSET 0.689408 -0.053302 -0.308304
                                CHANNELS 3 Zrotation Yrotation Xrotation
                                JOINT LeftHandLittle2
                                {
                                    OFFSET 0.068111 -0.180039 -0.031637
                                    CHANNELS 3 Zrotation Yrotation Xrotation
                                    JOINT LeftHandLittle3
                                    {
                                        OFFSET -0.094732 -0.068193 -0.029526
                                        CHANNELS 3 Zrotation Yrotation Xrotation
                                        End Site
                                        {
                                            OFFSET -0.188262 0.006629 -0.028317
                                        }
                                    }
                                }
                            }
                        }
                    }
                }
            }
            JOINT RightCollar
            {
                OFFSET -0.167536 0.778237 -0.168280
                CHANNELS 3 Zrotation Yrotation Xrotation
                JOINT RightShoulder
                {
                    OFFSET -0.831514 -0.002900 0.006457
                    CHANNELS 3 Zrotation Yrotation Xrotation
                    JOINT RightElbow
                    {
                        OFFSET -2.272872 -0.026639 0.059313
                        CHANNELS 3 Zrotation Yrotation Xrotation
                        JOINT RightWrist
                        {
                            OFFSET -2.081982 -0.024402 0.054331
                            CHANNELS 3 Zrotation Yrotation Xrotation
                            JOINT RightHandThumb1
                            {
                                OFFSET -0.218911 -0.128571 0.283837
                                CHANNELS 3 Zrotation Yrotation Xrotation
                                JOINT RightHandThumb2
                                {
                                    OFFSET -0.137157 -0.025101 0.077902
                                    CHANNELS 3 Zrotation Yrotation Xrotation
                                    JOINT RightHandThumb3
                                    {
                                        OFFSET -0.160591 -0.087276 0.011525
                                        CHANNELS 3 Zrotation Yrotation Xrotation
                                        End Site
                                        {
                                            OFFSET -0.201429 -0.172937 0.036816
                                        }
                                    }
                                }
                            }
                            JOINT RightHandFore1
                            {
                                OFFSET -0.767344 -0.015991 0.196679
                                CHANNELS 3 Zrotation Yrotation Xrotation
                                JOINT RightHandFore2
                                {
                                    OFFSET -0.215182 -0.023988 0.010864
                                    CHANNELS 3 Zrotation Yrotation Xrotation
                                    JOINT RightHandFore3
                                    {
                                        OFFSET -0.004225 -0.129259 -0.006036
                                        CHANNELS 3 Zrotation Yrotation Xrotation
                                        End Site
                                        {
                                            OFFSET 0.104425 -0.162162 -0.012879
                                        }
                                    }
                                }
                            }
                            JOINT RightHandMiddle1
                            {
                                OFFSET -0.709887 -0.008302 0.018525
                                CHANNELS 3 Zrotation Yrotation Xrotation
                                JOINT RightHandMiddle2
                                {
                                    OFFSET -0.228590 -0.087997 0.008038
                                    CHANNELS 3 Zrotation Yrotation Xrotation
                                    JOINT RightHandMiddle3
                                    {
                                        OFFSET 0.008262 -0.145954 -0.003687
                                        CHANNELS 3 Zrotation Yrotation Xrotation
                                        End Site
                                        {
                                            OFFSET 0.178703 -0.153321 -0.013714
                                        }
                                    }
                                }
                            }
                            JOINT RightHandRing1
                            {
                                OFFSET -0.743819 -0.005785 -0.153669
                                CHANNELS 3 Zrotation Yrotation Xrotation
                                JOINT RightHandRing2
                                {
                                    OFFSET -0.272022 -0.225007 -0.010452
                                    CHANNELS 3 Zrotation Yrotation Xrotation
                                    JOINT RightHandRing3
                                    {
                                        OFFSET 0.058154 -0.122646 -0.013449
                                        CHANNELS 3 Zrotation Yrotation Xrotation
                                        End Site
                                        {
                                            OFFSET 0.110415 -0.046757 -0.006532
                                        }
                                    }
                                }
                            }
                            JOINT RightHandLittle1
                            {
                                OFFSET -0.689403 -0.053298 -0.308303
                                CHANNELS 3 Zrotation Yrotation Xrotation
                                JOINT RightHandLittle2
                                {
                                    OFFSET -0.068118 -0.180039 -0.031638
                                    CHANNELS 3 Zrotation Yrotation Xrotation
                                    JOINT RightHandLittle3
                                    {
                                        OFFSET 0.095947 -0.071582 -0.012875
                                        CHANNELS 3 Zrotation Yrotation Xrotation
                                        End Site
                                        {
                                            OFFSET 0.190484 0.000490 0.002031
                                        }
                                    }
                                }
                            }
                        }
                    }
                }
            }
        }
    }
    JOINT LeftHip
    {
        OFFSET 0.685143 0.673822 -0.044491
        CHANNELS 3 Zrotation Yrotation Xrotation
        JOINT LeftKnee
        {
            OFFSET 0.085364 -3.750208 0.017676
            CHANNELS 3 Zrotation Yrotation Xrotation
            JOINT LeftAnkle
            {
                OFFSET 0.094583 -4.155206 0.019585
                CHANNELS 3 Zrotation Yrotation Xrotation
                JOINT LeftToe
                {
                    OFFSET -0.000000 -0.395925 0.621478
                    CHANNELS 3 Zrotation Yrotation Xrotation
                    End Site
                    {
                        OFFSET -0.000000 -0.077878 0.321152
                    }
                }
            }
        }
    }
    JOINT RightHip
    {
        OFFSET -0.685143 0.673822 -0.044492
        CHANNELS 3 Zrotation Yrotation Xrotation
        JOINT RightKnee
        {
            OFFSET -0.085364 -3.750208 0.017677
            CHANNELS 3 Zrotation Yrotation Xrotation
            JOINT RightAnkle
            {
                OFFSET -0.094583 -4.155206 0.019585
                CHANNELS 3 Zrotation Yrotation Xrotation
                JOINT RightToe
                {
                    OFFSET -0.000000 -0.395925 0.621478
                    CHANNELS 3 Zrotation Yrotation Xrotation
                    End Site
                    {
                        OFFSET -0.000000 -0.077878 0.321152
                    }
                }
            }
        }
    }
}
MOTION
Frames: 6
Frame Time: 0.033333
-0.248483 7.910970 0.041448 179.907410 -5.475227 -171.687378 2.056839 -0.958911 3.548994 -0.009481 0.148833 -3.645267 -6.423029 0.683302 -2.442841 -0.081877 1.589949 -2.478138 -13.141973 -6.859472 0.010624 -58.607128 -10.562182 9.512857 0.086030 -27.852390 -0.354313 8.760790 1.079572 -17.465475 -0.000003 0.000002 0.000001 -0.000001 -0.000002 0.000000 0.000001 0.000009 0.000000 0.000001 -0.000000 0.000001 0.000003 0.000002 -0.000001 0.000000 0.000002 0.000001 0.000001 -0.000000 0.000001 0.000003 -0.000005 -0.000000 -0.000001 0.000002 -0.000000 0.000001 0.000002 0.000001 0.000002 -0.000000 -0.000002 -0.000002 -0.000000 0.000000 0.000004 -0.000002 -0.000001 0.000001 0.000005 -0.000000 0.000002 -0.000002 0.000001 12.100277 5.241167 -0.050254 50.848034 2.786610 6.006380 -0.143738 34.803059 -0.465919 -5.587826 -0.101609 -5.502053 -0.000004 0.000007 0.000000 -0.000001 -0.000005 0.000003 0.000004 0.000002 -0.000002 0.000000 0.000002 -0.000003 0.000001 -0.000007 0.000004 0.000003 0.000007 0.000000 -0.000001 0.000002 0.000003 -0.000001 0.000002 -0.000003 0.000005 -0.000003 0.000003 -0.000003 -0.000000 -0.000001 0.000002 0.000002 -0.000005 -0.000001 -0.000003 0.000001 0.000002 -0.000000 -0.000001 0.000001 -0.000005 0.000000 -0.000003 0.000005 -0.000003 -4.344982 -6.862772 -26.480177 0.384032 0.924163 45.127209 10.487841 10.861450 -29.822990 -0.000000 -0.000001 0.000001 -1.385329 -1.708957 -32.083004 -0.415764 -0.954751 47.064640 0.937701 -2.755332 -28.031675 -0.000000 0.000000 0.000005
-0.249492 7.911765 0.041134 179.907410 -5.475227 -171.687378 2.067486 -0.956908 3.542979 0.001109 0.147805 -3.651227 -6.441381 0.684869 -2.439696 -0.081870 1.589805 -2.472493 -13.149220 -6.856548 0.010259 -58.636272 -10.604643 9.514514 0.085231 -27.736097 -0.352577 8.774262 1.101725 -17.513964 -0.000005 0.000002 -0.000009 -0.000001 -0.000000 0.000002 0.000002 0.000003 -0.000001 0.000004 -0.000005 -0.000006 -0.000002 0.000005 0.000000 0.000002 -0.000000 0.000002 0.000003 -0.000002 -0.000004 -0.000000 -0.000000 -0.000001 -0.000005 -0.000002 0.000002 -0.000004 -0.000005 -0.000001 0.000002 -0.000003 -0.000002 -0.000003 -0.000000 0.000001 0.000003 0.000002 -0.000006 -0.000007 0.000007 -0.000002 0.000003 0.000003 -0.000001 12.096679 5.238752 -0.049869 50.838177 2.730822 6.004202 -0.144715 34.902157 -0.467641 -5.583080 -0.115079 -5.482019 -0.000006 0.000019 -0.000013 -0.000003 0.000002 -0.000001 -0.000004 0.000003 0.000000 -0.000013 0.000014 0.000003 0.000005 -0.000002 -0.000002 -0.000000 0.000009 0.000000 -0.000003 0.000009 0.000009 0.000002 -0.000002 0.000002 -0.000001 -0.000000 -0.000001 0.000000 0.000012 0.000005 0.000003 -0.000003 -0.000001 -0.000003 -0.000005 -0.000002 0.000018 0.000019 0.000008 0.000000 -0.000000 -0.000003 0.000001 -0.000003 0.000006 -4.351279 -6.885441 -26.467018 0.383435 0.923570 45.090210 10.491870 10.880612 -29.802820 0.000000 0.000000 -0.000001 -1.396276 -1.699314 -32.056320 -0.415071 -0.954107 47.023037 0.948038 -2.763865 -28.034214 0.000001 0.000002 0.000000
-0.252443 7.914052 0.040216 179.907410 -5.475227 -171.687378 2.098611 -0.951035 3.525430 0.032095 0.144808 -3.668538 -6.494148 0.689543 -2.430489 -0.081856 1.589542 -2.455934 -13.170200 -6.847992 0.009187 -58.721508 -10.728535 9.519513 0.082922 -27.397261 -0.347537 8.813227 1.165994 -17.654619 -0.000005 0.000002 -0.000007 -0.000005 0.000002 0.000005 0.000004 -0.000000 -0.000004 0.000001 -0.000005 -0.000007 -0.000001 0.000009 0.000003 -0.000001 -0.000003 -0.000002 -0.000000 -0.000010 -0.000004 -0.000003 -0.000003 0.000001 -0.000003 -0.000003 0.000000 -0.000005 -0.000010 -0.000007 0.000001 0.000002 0.000003 -0.000001 -0.000002 -0.000001 -0.000016 -0.000000 -0.000005 0.000001 0.000003 -0.000001 0.000002 -0.000000 -0.000000 12.086148 5.231779 -0.048750 50.809193 2.568751 5.997795 -0.147572 35.190212 -0.472661 -5.569454 -0.154532 -5.424461 0.000002 0.000010 0.000001 -0.000001 -0.000003 -0.000002 0.000000 0.000007 0.000000 -0.000002 0.000005 -0.000003 0.000000 -0.000002 0.000002 0.000006 -0.000003 0.000001 0.000006 0.000005 0.000008 0.000002 0.000002 -0.000003 -0.000003 0.000005 0.000003 0.000005 -0.000000 -0.000003 0.000000 -0.000002 -0.000001 -0.000004 0.000007 -0.000003 0.000018 0.000005 0.000003 0.000005 -0.000000 0.000003 -0.000001 -0.000003 0.000001 -4.369705 -6.950621 -26.429169 0.381717 0.921853 44.983459 10.503949 10.935733 -29.744761 0.000001 -0.000001 0.000001 -1.428166 -1.671271 -31.979298 -0.413075 -0.952244 46.903095 0.978169 -2.788661 -28.041584 -0.000000 -0.000000 0.000003
-0.257215 7.917682 0.038734 179.907410 -5.475227 -171.687378 2.148994 -0.941503 3.497146 0.082248 0.139987 -3.696458 -6.577897 0.697278 -2.415572 -0.081849 1.589428 -2.428993 -13.203841 -6.834100 0.007432 -58.859653 -10.930047 9.527946 0.079251 -26.847849 -0.339427 8.875498 1.269098 -17.880201 -0.000003 -0.000005 -0.000012 -0.000002 -0.000000 0.000005 0.000000 0.000003 -0.000003 0.000005 -0.000002 0.000001 -0.000003 -0.000002 0.000000 -0.000001 0.000010 0.000002 0.000007 -0.000002 0.000004 -0.000004 0.000003 -0.000002 -0.000002 0.000003 0.000001 -0.000001 -0.000002 -0.000002 -0.000003 0.000002 0.000002 -0.000006 -0.000002 -0.000001 -0.000015 0.000003 0.000004 -0.000004 -0.000000 -0.000001 0.000004 -0.000000 -0.000000 12.068965 5.220625 -0.046948 50.762123 2.309048 5.987478 -0.152254 35.651783 -0.480778 -5.547862 -0.218597 -5.333221 -0.000004 0.000002 -0.000003 -0.000003 -0.000000 0.000002 0.000001 -0.000000 -0.000001 -0.000006 0.000005 0.000000 -0.000002 -0.000000 0.000002 -0.000002 -0.000003 -0.000001 -0.000000 -0.000002 0.000007 0.000003 0.000007 -0.000003 0.000005 -0.000002 0.000002 0.000007 -0.000002 -0.000001 0.000006 0.000003 0.000003 -0.000001 0.000003 -0.000003 0.000001 -0.000005 0.000005 0.000003 -0.000000 -0.000003 -0.000002 0.000003 -0.000003 -4.399520 -7.054043 -26.368864 0.378975 0.919103 44.812859 10.524199 11.023191 -29.652294 -0.000001 -0.000001 -0.000000 -1.479542 -1.626149 -31.856297 -0.409902 -0.949266 46.711849 1.026713 -2.828573 -28.053251 0.000000 0.000000 0.000003
-0.263690 7.922504 0.036726 179.907410 -5.475227 -171.687378 2.217398 -0.928523 3.458923 0.150333 0.133507 -3.734228 -6.689196 0.708034 -2.395298 -0.081866 1.589733 -2.392238 -13.249159 -6.815173 0.005037 -59.047703 -11.207039 9.539961 0.074426 -26.096346 -0.328462 8.958897 1.407728 -18.183378 0.000000 0.000009 -0.000002 0.000000 -0.000002 0.000000 -0.000001 -0.000000 0.000000 0.000001 -0.000002 -0.000006 0.000005 -0.000000 -0.000002 -0.000003 0.000002 -0.000001 -0.000001 -0.000003 -0.000006 0.000003 -0.000000 0.000000 -0.000001 -0.000000 0.000000 0.000009 -0.000005 -0.000008 -0.000003 0.000002 0.000003 -0.000003 -0.000000 -0.000001 0.000002 0.000003 -0.000007 0.000001 0.000003 0.000001 0.000005 -0.000005 -0.000002 12.045439 5.205696 -0.044506 50.698036 1.960891 5.973581 -0.158694 36.270489 -0.491815 -5.519210 -0.305859 -5.212151 -0.000009 0.000005 0.000001 -0.000001 -0.000002 0.000003 0.000001 -0.000000 -0.000001 -0.000012 -0.000000 0.000000 0.000000 -0.000007 0.000000 -0.000000 0.000003 -0.000001 0.000002 0.000002 0.000014 0.000000 0.000002 -0.000003 0.000000 0.000002 -0.000002 0.000003 -0.000000 0.000006 0.000003 0.000002 0.000001 0.000001 0.000003 -0.000002 0.000014 -0.000000 0.000005 0.000001 -0.000000 -0.000003 0.000001 -0.000000 0.000003 -4.439936 -7.191438 -26.288252 0.375315 0.915404 44.584202 10.552833 11.139299 -29.528801 0.000000 -0.000000 -0.000002 -1.548911 -1.565275 -31.691477 -0.405671 -0.945262 46.455910 1.092215 -2.882512 -28.068510 0.000000 0.000000 0.000005
-0.271749 7.928370 0.034230 179.907410 -5.475227 -171.687378 2.302571 -0.912287 3.411548 0.235114 0.125540 -3.781067 -6.824612 0.721765 -2.370042 -0.081917 1.590728 -2.346219 -13.305052 -6.791500 0.002018 -59.283112 -11.559391 9.555746 0.068573 -25.146955 -0.314812 9.061265 1.578544 -18.556780 -0.000011 -0.000002 -0.000013 0.000001 -0.000002 0.000003 -0.000001 0.000003 0.000001 -0.000003 -0.000014 -0.000002 -0.000003 0.000005 0.000001 -0.000009 -0.000002 0.000001 0.000001 -0.000012 0.000000 -0.000004 0.000002 -0.000000 -0.000001 0.000002 0.000000 -0.000001 -0.000010 -0.000003 -0.000005 -0.000002 0.000000 -0.000013 0.000002 0.000001 -0.000038 -0.000002 -0.000001 0.000000 0.000003 0.000003 0.000000 -0.000003 0.000000 12.015871 5.187401 -0.041476 50.618237 1.534521 5.956509 -0.166841 37.027557 -0.505551 -5.484427 -0.414924 -5.065123 -0.000003 0.000014 -0.000002 -0.000004 0.000005 -0.000003 -0.000001 0.000003 0.000000 -0.000000 0.000005 0.000009 0.000004 0.000002 -0.000001 -0.000001 -0.000000 -0.000001 0.000005 0.000009 0.000013 -0.000000 -0.000002 -0.000004 -0.000003 -0.000002 -0.000002 0.000009 0.000003 0.000009 0.000008 -0.000000 0.000000 0.000005 -0.000000 0.000001 0.000047 0.000012 0.000010 0.000008 -0.000003 -0.000006 0.000009 -0.000002 0.000001 -4.490137 -7.358535 -26.189297 0.370833 0.910834 44.302910 10.590142 11.280353 -29.377474 0.000001 -0.000001 -0.000006 -1.634760 -1.489978 -31.489033 -0.400504 -0.940325 46.141903 1.173184 -2.949414 -28.086660 0.000000 0.000001 0.000003
